<?xml version="1.0" encoding="utf-8"?>
<!-- Generator: Adobe Illustrator 25.2.0, SVG Export Plug-In . SVG Version: 6.00 Build 0)  -->
<svg version="1.0" id="Layer_1" xmlns="http://www.w3.org/2000/svg" xmlns:xlink="http://www.w3.org/1999/xlink" x="0px" y="0px"
	 viewBox="0 0 240 240" enable-background="new 0 0 240 240" xml:space="preserve">
<g>
	<path fill="#FFB6B6" d="M99.6,109.46c-2.35,2.11-5.44,2.66-6.85,1.22c-1.45-1.4-0.67-4.29,1.68-6.39c1.06-0.92,2.23-1.55,3.33-1.85
		l10.22-8.83l4.27,4.58l-10.49,8.24C101.37,107.47,100.66,108.54,99.6,109.46L99.6,109.46z"/>
	<polygon fill="#FFB6B6" points="153.21,200.33 148.27,200.33 145.96,182.44 153.21,182.44 	"/>
	<path fill="#2F2E41" d="M136.37,200.22L136.37,200.22c-0.16,0.22-0.23,1.03-0.23,1.29l0,0c0,0.89,0.74,1.59,1.68,1.59h15.19
		c0.63,0,1.14-0.48,1.14-1.07v-0.59c0,0,0.74-1.81-0.78-4.03c0,0-1.96,1.74-4.82-0.96l-0.86-1.48l-6.11,4.25l-3.41,0.41
		C137.43,199.7,136.76,199.59,136.37,200.22L136.37,200.22z"/>
	<polygon fill="#FFB6B6" points="187.62,197.67 182.81,198.52 177.05,181.37 184.18,180.11 	"/>
	<path fill="#2F2E41" d="M171.06,200.47L171.06,200.47c-0.08,0.26,0,1.07,0.04,1.33l0,0c0.16,0.85,1.02,1.4,1.96,1.26l14.92-2.62
		c0.63-0.11,1.02-0.67,0.94-1.26l-0.12-0.59c0,0,0.39-1.88-1.57-3.77c0,0-1.57,2.03-4.93-0.15l-1.1-1.29l-5.21,5.25l-3.29,0.96
		C172,199.81,171.34,199.81,171.06,200.47L171.06,200.47z"/>
	<path fill="#2F2E41" d="M175.6,112.01l12.1,76.38l-11.28,1.4l-19.58-60.53l-2.43,62.37h-10.49c0,0-9.08-68.84-6.38-77.16
		C140.21,106.17,175.6,112.01,175.6,112.01L175.6,112.01z"/>
	<path fill="#6366F1" d="M149.53,50.74h11.75L163,54.7c0,0,6.85,3.7,6.85,5.06c0,1.4,4.15,36.25,4.15,36.25l2.19,19.18
		c0,0-25.69,12.23-38.41-0.22l2.43-21.25c0,0-1.96-33.26-0.98-34.66c0.98-1.37,8.34-4.62,8.34-4.62L149.53,50.74z"/>
	<path fill="#6366F1" d="M145.85,56.73L145.85,56.73c0,0,3.56,5.1,2.47,7.21c-1.14,2.11-18.79,22.25-18.79,22.25l-21.26,16.52
		l-6.23-5.21l20.05-18.03L135,61.42C137.07,57.73,141.5,55.81,145.85,56.73L145.85,56.73z"/>
	<path fill="#FFB6B6" d="M186.21,123.06c0.55,3.07-0.7,5.76-2.78,6.1c-2.04,0.3-4.11-1.92-4.62-4.95c-0.23-1.33-0.12-2.62,0.23-3.66
		l-2-12.9l6.46-0.78l1.29,12.82C185.47,120.58,186.02,121.73,186.21,123.06L186.21,123.06z"/>
	<path fill="#6366F1" d="M161.19,57.21c0,0,10.1-2.14,11.94,3.18c1.84,5.28,12.92,55.58,12.92,55.58l-8.42,0.89l-6.34-34.44
		L161.19,57.21L161.19,57.21z"/>
	<path fill="#FFB6B6" d="M165.89,38.66c0,5.25-4.5,9.53-10.1,9.53c-5.56,0-10.1-4.29-10.1-9.53c0-5.28,4.54-9.53,10.1-9.53
		C161.39,29.13,165.89,33.38,165.89,38.66L165.89,38.66z"/>
	<path fill="#2F2E41" d="M161.7,46.75c-0.67,0.04-1.49-0.07-1.61-0.7c-0.08-0.41,0.31-0.78,0.67-1.03c0.47-0.41,1.02-0.74,1.45-1.18
		c0.43-0.44,0.74-1,0.74-1.63c0.04-0.59-0.35-1.22-0.98-1.4c-0.59-0.15-1.37,0.26-1.37,0.85c-0.59-0.81-0.67-1.88-0.7-2.88
		c0-0.59,0-1.18,0-1.77c0-0.81,0-1.63,0.04-2.44c-0.43,0-3.8,1.18-4.31,1.18c-0.43,0-3.8-0.63-3.56-1.55
		c-0.08,0.59-3.29,1.63-3.37,1.33c-0.08-0.3-0.31-0.63-0.63-0.59c-0.35,0-0.55,0.37-0.67,0.67c-0.27,0.7-0.9,1.88-1.57,1.55
		c-5.13-2.7-0.98-3.55-0.39-4.62c0.74-1.37,1.57-2.77,2.86-3.62c1.33-0.85,2.39-1.88,3.45-0.74c2.62-1.77,5.21-1.37,8.26-0.33
		c3.05,1.03,5.52,3.55,6.34,6.5c0.35,1.37,1.37,1.96,0.63,3.18c0.82,1.03,0.35,0.44,0.55,1.74c0.12,1.03,0,2.11-0.55,3.03
		c-0.55,0.92-1.57,1.63-2.66,2c-1.1,0.41-1.29,2.44-2.43,2.59"/>
	<path fill="#F2F2F2" d="M211.86,195.82c1.02,0.07,1.57-1.11,0.82-1.81l-0.08-0.3c0,0,0-0.04,0.04-0.07
		c1.02-2.29,4.46-2.29,5.48,0.04c0.9,2.03,2.04,4.1,2.35,6.24c0.12,0.96,0.04,1.92-0.16,2.88c2.11-4.36,3.21-9.09,3.21-13.89
		c0-1.18-0.08-2.4-0.23-3.58c-0.08-0.96-0.27-1.96-0.47-2.92c-1.14-5.21-3.56-10.16-7.09-14.3c-1.68-0.89-3.13-2.25-3.95-3.88
		c-0.31-0.59-0.55-1.22-0.67-1.88c0.2,0.04,0.7-2.73,0.59-2.92c0.23-0.37,0.74-0.55,1.02-0.96c1.49-1.85,3.48-1.51,4.54,1
		c2.23,1.07,2.27,2.85,0.86,4.55c-0.86,1.11-0.98,2.55-1.76,3.73c0.08,0.07,0.16,0.18,0.23,0.26c1.49,1.77,2.74,3.66,3.8,5.65
		c-0.31-2.22,0.12-4.88,0.86-6.58c0.86-1.96,2.47-3.58,3.88-5.28c1.72-2,5.17-1.15,5.48,1.44c0,0,0,0.04,0,0.07
		c-0.2,0.11-0.39,0.22-0.59,0.33c-1.17,0.74-0.78,2.4,0.59,2.59l0.04,0.04c-0.08,0.7-0.2,1.4-0.39,2.11
		c1.8,6.61-2.11,9.02-7.71,9.13c-0.12,0.07-0.23,0.11-0.35,0.18c0.59,1.48,1.02,3.03,1.37,4.58c0.27,1.4,0.51,2.81,0.63,4.21
		c0.12,1.74,0.12,3.55-0.04,5.28v-0.04c0.39-1.96,1.53-3.77,3.17-5.03c2.39-1.88,5.83-2.59,8.42-4.1c1.29-0.7,2.9,0.22,2.66,1.59
		v0.07c-0.39,0.15-0.78,0.33-1.14,0.52c-0.23,0.11-0.43,0.22-0.63,0.37c-1.14,0.7-0.74,2.37,0.63,2.59l0,0c0.04,0,0.04,0,0.08,0
		c-0.67,1.51-1.61,2.88-2.78,4.1c-1.1,5.76-5.99,6.32-11.2,4.62l0,0c-0.55,2.33-1.37,4.62-2.47,6.8h-8.81
		c-0.04-0.07-0.08-0.18-0.08-0.26c0.82,0.04,1.64,0,2.43-0.15c-0.67-0.78-1.29-1.51-1.96-2.29c-0.04,0-0.04-0.04-0.04-0.04
		c-0.35-0.41-0.67-0.78-1.02-1.15l0,0C211.43,198.15,211.59,196.96,211.86,195.82L211.86,195.82L211.86,195.82z"/>
	<path fill="#CCCCCC" d="M6.14,203.43c0,0.3,0.27,0.52,0.59,0.52h233.13c0.31,0,0.55-0.22,0.55-0.52c0-0.33-0.23-0.55-0.55-0.55
		H6.73C6.41,202.88,6.14,203.1,6.14,203.43L6.14,203.43z"/>
	<path fill="#3F3D56" d="M58.76,153.43l-0.08-0.92c1.92-0.11,3.84-0.37,5.68-0.74l0.2,0.92C62.68,153.06,60.72,153.32,58.76,153.43
		L58.76,153.43z M52.85,153.36c-1.96-0.18-3.92-0.44-5.79-0.81l0.2-0.89c1.84,0.33,3.76,0.63,5.72,0.78L52.85,153.36L52.85,153.36z
		 M70.24,151.18l-0.35-0.85c1.8-0.63,3.6-1.33,5.29-2.18l0.43,0.81C73.88,149.81,72.08,150.59,70.24,151.18L70.24,151.18z
		 M41.38,151.14c-1.88-0.59-3.68-1.33-5.4-2.11l0.43-0.85c1.68,0.81,3.45,1.48,5.29,2.07L41.38,151.14L41.38,151.14z M30.89,146.23
		c-1.61-1.03-3.17-2.22-4.58-3.47l0.67-0.67c1.37,1.22,2.9,2.36,4.46,3.36L30.89,146.23L30.89,146.23z M80.65,146.08l-0.59-0.74
		c1.57-1.03,3.05-2.18,4.46-3.44l0.67,0.66C83.75,143.86,82.22,145.01,80.65,146.08L80.65,146.08z M22.27,138.69
		c-1.21-1.44-2.31-2.96-3.33-4.58l0.86-0.44c0.94,1.55,2.04,3.07,3.25,4.43L22.27,138.69L22.27,138.69z M89.19,138.54l-0.74-0.59
		c1.21-1.4,2.31-2.88,3.33-4.43l0.82,0.48C91.58,135.59,90.44,137.1,89.19,138.54L89.19,138.54z M16.32,129.16
		c-0.74-1.7-1.37-3.47-1.88-5.25l0.94-0.26c0.51,1.77,1.14,3.51,1.84,5.14L16.32,129.16L16.32,129.16z M95.3,129.08l-0.9-0.37
		c0.78-1.66,1.41-3.36,1.92-5.1l0.98,0.22C96.74,125.65,96.08,127.38,95.3,129.08L95.3,129.08z M13.31,118.44
		c-0.23-1.81-0.35-3.66-0.35-5.51h0.98c0,1.81,0.12,3.62,0.35,5.39L13.31,118.44z M98.47,118.4l-0.98-0.11
		c0.27-1.77,0.39-3.58,0.39-5.39v-0.11h0.98v0.11C98.86,114.75,98.74,116.59,98.47,118.4L98.47,118.4z M14.28,107.5l-0.98-0.11
		c0.27-1.85,0.63-3.66,1.14-5.43l0.94,0.22C14.91,103.92,14.52,105.69,14.28,107.5L14.28,107.5z M97.49,107.39
		c-0.27-1.77-0.67-3.58-1.17-5.28l0.94-0.26c0.51,1.77,0.94,3.58,1.21,5.43L97.49,107.39L97.49,107.39z M17.22,97.05l-0.94-0.37
		c0.78-1.7,1.64-3.36,2.62-4.95l0.86,0.44C18.79,93.72,17.93,95.35,17.22,97.05L17.22,97.05z M94.36,96.97
		c-0.74-1.63-1.64-3.25-2.62-4.8l0.82-0.48c1.02,1.59,1.92,3.25,2.7,4.91L94.36,96.97L94.36,96.97z M88.4,87.77
		c-1.21-1.4-2.55-2.73-3.95-3.95l0.7-0.67c1.41,1.26,2.78,2.59,3.99,4.03L88.4,87.77L88.4,87.77z M22.98,87.73l-0.74-0.59
		c1.21-1.44,2.58-2.81,3.99-4.06l0.67,0.67C25.48,84.96,24.19,86.29,22.98,87.73L22.98,87.73z M80.03,80.38
		c-1.57-1.03-3.25-1.96-4.93-2.81l0.47-0.81c1.72,0.85,3.41,1.81,5.01,2.88L80.03,80.38L80.03,80.38z M31.36,80.34l-0.55-0.74
		c1.61-1.03,3.29-2,5.05-2.81l0.47,0.81C34.61,78.42,32.92,79.35,31.36,80.34L31.36,80.34z M41.61,75.54l-0.31-0.89
		c1.84-0.55,3.72-1.03,5.68-1.44l0.2,0.92C45.26,74.5,43.42,74.98,41.61,75.54L41.61,75.54z M69.81,75.43
		c-1.8-0.59-3.64-1.11-5.52-1.44l0.2-0.92c1.92,0.37,3.84,0.89,5.68,1.48L69.81,75.43L69.81,75.43z M52.85,73.36l-0.08-0.92
		c0.98-0.11,2-0.15,3.01-0.18c0.94-0.04,1.92,0,2.86,0.07l-0.04,0.92c-0.94-0.07-1.88-0.07-2.82-0.07
		C54.81,73.21,53.83,73.25,52.85,73.36L52.85,73.36z"/>
	<path fill="#6366F1" d="M58.51,148.8c0,6.87-5.91,12.45-13.2,12.45s-13.23-5.58-13.23-12.45c0-6.87,5.95-12.49,13.23-12.49
		S58.51,141.92,58.51,148.8L58.51,148.8z"/>
	<path fill="#FFFFFF" d="M40.15,144.62c0-0.41,0.35-0.7,0.74-0.7h8.85c0.39,0,0.74,0.3,0.74,0.7v8.35c0,0.41-0.35,0.7-0.74,0.7
		h-8.85c-0.39,0-0.74-0.3-0.74-0.7V144.62z M43.32,152.09v-4.4h-1.53v4.4H43.32z M42.57,147.06c0.51,0,0.86-0.33,0.86-0.74
		c0-0.44-0.35-0.78-0.86-0.78c-0.55,0-0.9,0.33-0.9,0.78c0,0.41,0.35,0.74,0.86,0.74H42.57L42.57,147.06z M45.75,152.09v-2.48
		c0-0.11,0-0.26,0.04-0.33c0.12-0.26,0.35-0.55,0.78-0.55c0.59,0,0.78,0.41,0.78,1v2.36h1.57v-2.51c0-1.37-0.74-2-1.8-2
		c-0.82,0-1.17,0.41-1.37,0.74l0,0h-0.04h0.04v-0.63h-1.57c0.04,0.41,0,4.4,0,4.4H45.75z"/>
	<path fill="#6366F1" d="M46.78,79.62c0,6.87-5.91,12.45-13.2,12.45c-7.32,0-13.23-5.58-13.23-12.45c0-6.87,5.91-12.49,13.23-12.49
		C40.87,67.13,46.78,72.75,46.78,79.62L46.78,79.62z"/>
	<path fill="#6366F1" d="M26.83,116.87c0,6.87-5.91,12.45-13.23,12.45c-7.28,0-13.2-5.58-13.2-12.45c0-6.91,5.91-12.49,13.2-12.49
		C20.92,104.38,26.83,109.96,26.83,116.87L26.83,116.87z"/>
	<path fill="#6366F1" d="M102.36,137.21c0,6.87-5.91,12.45-13.2,12.45c-7.32,0-13.23-5.58-13.23-12.45
		c0-6.91,5.91-12.49,13.23-12.49C96.45,124.72,102.36,130.3,102.36,137.21L102.36,137.21z"/>
	<path fill="#FFFFFF" d="M89.17,131.89c-1.53,0-1.72,0-2.35,0.04c-0.59,0-1.02,0.11-1.37,0.22c-0.35,0.15-0.7,0.37-0.98,0.63
		c-0.31,0.26-0.51,0.59-0.67,0.92c-0.12,0.37-0.23,0.74-0.27,1.29c0,0.59,0,0.78,0,2.22c0,1.44,0,1.63,0,2.18
		c0.04,0.55,0.16,0.96,0.27,1.29c0.16,0.33,0.35,0.63,0.67,0.92c0.31,0.3,0.63,0.48,0.98,0.63c0.35,0.15,0.78,0.22,1.37,0.26
		c0.63,0,0.78,0.04,2.35,0.04c1.53,0,1.72-0.04,2.31-0.04c0.59-0.04,1.02-0.11,1.37-0.26c0.35-0.15,0.7-0.33,0.98-0.63
		c0.31-0.3,0.51-0.59,0.67-0.92c0.16-0.33,0.23-0.74,0.27-1.29c0-0.55,0.04-0.74,0.04-2.18c0-1.44-0.04-1.63-0.04-2.22
		c-0.04-0.55-0.12-0.92-0.27-1.29c-0.16-0.33-0.35-0.67-0.67-0.92c-0.27-0.26-0.63-0.48-0.98-0.63c-0.35-0.11-0.78-0.22-1.37-0.22
		C90.89,131.89,90.7,131.89,89.17,131.89L89.17,131.89z M88.66,132.85h0.51c1.49,0,1.68,0,2.27,0.04c0.55,0,0.82,0.11,1.02,0.15
		c0.27,0.11,0.47,0.22,0.67,0.41c0.2,0.18,0.31,0.37,0.43,0.63c0.08,0.18,0.16,0.44,0.2,1c0,0.55,0.04,0.7,0.04,2.14
		c0,1.4-0.04,1.59-0.04,2.14c-0.04,0.52-0.12,0.78-0.2,1c-0.12,0.22-0.23,0.41-0.43,0.59c-0.2,0.18-0.39,0.3-0.67,0.41
		c-0.2,0.07-0.47,0.15-1.02,0.18c-0.59,0-0.78,0.04-2.27,0.04c-1.53,0-1.68-0.04-2.31-0.04c-0.55-0.04-0.82-0.11-1.02-0.18
		c-0.27-0.07-0.47-0.22-0.67-0.41c-0.2-0.18-0.31-0.37-0.43-0.59c-0.08-0.22-0.16-0.48-0.2-1c0-0.55,0-0.74,0-2.14
		c0-1.44,0-1.59,0-2.18c0.04-0.52,0.12-0.78,0.2-0.96c0.12-0.26,0.23-0.44,0.43-0.63c0.2-0.18,0.39-0.3,0.67-0.41
		c0.2-0.07,0.47-0.15,1.02-0.18C87.41,132.85,87.6,132.85,88.66,132.85L88.66,132.85L88.66,132.85z M92.14,133.74
		c-0.35,0-0.67,0.26-0.67,0.63c0,0.33,0.31,0.63,0.67,0.63l0,0c0.39,0,0.7-0.3,0.7-0.63C92.85,134,92.54,133.74,92.14,133.74
		L92.14,133.74z M89.17,134.48c-1.61-0.04-2.94,1.18-2.94,2.7c-0.04,1.48,1.21,2.73,2.82,2.77c0.04,0,0.08,0,0.12,0
		c1.57-0.04,2.86-1.29,2.82-2.77C91.99,135.7,90.73,134.48,89.17,134.48L89.17,134.48z M89.17,135.44c1.02,0,1.88,0.78,1.88,1.77
		c0,0.96-0.86,1.77-1.88,1.77l0,0c-1.06,0-1.88-0.81-1.88-1.77C87.29,136.21,88.11,135.44,89.17,135.44L89.17,135.44z"/>
</g>
<path fill="#6366F1" d="M93.75,81.74c0,6.87-5.91,12.45-13.2,12.45c-7.32,0-13.23-5.58-13.23-12.45c0-6.87,5.91-12.49,13.23-12.49
	C87.84,69.25,93.75,74.86,93.75,81.74L93.75,81.74z"/>
<g>
	<path fill="none" stroke="#FFFFFF" stroke-linecap="round" stroke-linejoin="round" stroke-miterlimit="10" d="M11.49,120.66
		c-2.83,0.79-2.83-1.3-3.95-1.56 M15.46,122.22v-2.02c0.04-0.49-0.16-1-0.53-1.36c1.78-0.18,3.63-0.8,3.63-3.64
		c0-0.74-0.3-1.43-0.84-1.95c0.25-0.64,0.23-1.34-0.05-1.97c0,0-0.68-0.18-2.21,0.77c-1.3-0.33-2.67-0.33-3.97,0
		c-1.55-0.95-2.21-0.77-2.21-0.77c-0.3,0.62-0.32,1.33-0.05,1.97c-0.55,0.52-0.85,1.23-0.85,1.97c0,2.82,1.87,3.44,3.65,3.64
		c-0.37,0.36-0.57,0.85-0.53,1.34v2.02"/>
</g>
<path fill="#FFFFFF" d="M40.11,74.16c0,0.08,0,0.17,0,0.25c-0.32,0.26-0.63,0.53-0.95,0.79c-0.16,0.13-0.22,0.27-0.22,0.46
	c0.01,2.22,0,4.44,0.01,6.66c0,0.15,0.09,0.32,0.2,0.44c0.3,0.31,0.63,0.59,0.95,0.87c0,0.05,0,0.1,0,0.15
	c-0.06,0.01-0.13,0.03-0.19,0.03c-1.6,0-3.21,0-4.81,0c-0.07,0-0.13-0.04-0.2-0.06c0.03-0.08,0.03-0.17,0.08-0.22
	c0.27-0.25,0.54-0.5,0.83-0.74c0.18-0.15,0.26-0.32,0.26-0.55c-0.01-1.66,0-3.33,0-4.99c0-0.09,0-0.18,0-0.26
	c-0.08,0.07-0.12,0.14-0.15,0.21c-0.9,2.12-1.81,4.23-2.71,6.35c-0.05,0.12-0.07,0.25-0.28,0.25c-0.2,0-0.26-0.09-0.33-0.23
	c-1.05-2.11-2.1-4.23-3.15-6.34c-0.04-0.08-0.08-0.16-0.13-0.24c-0.02,0-0.03,0-0.05,0.01c0,0.09,0,0.18,0,0.26
	c0,1.41,0,2.82,0,4.23c0,0.23,0.07,0.42,0.23,0.6c0.41,0.45,0.82,0.91,1.22,1.37c0.07,0.08,0.1,0.19,0.16,0.33
	c-1.37,0-2.67,0-3.97,0c0-0.08,0-0.17,0-0.25c0.02-0.01,0.05-0.01,0.07-0.03c0.46-0.51,0.92-1.01,1.36-1.53
	c0.08-0.1,0.14-0.25,0.14-0.37c0.01-1.82,0-3.65-0.01-5.47c0-0.14-0.08-0.3-0.17-0.41c-0.35-0.42-0.74-0.82-1.1-1.23
	c-0.07-0.08-0.1-0.2-0.17-0.33c0.16,0,0.25,0,0.34,0c1.09,0,2.18,0.01,3.27-0.01c0.21,0,0.3,0.06,0.39,0.23
	c0.9,1.83,1.8,3.65,2.7,5.47c0.04,0.08,0.08,0.15,0.14,0.26c0.05-0.1,0.07-0.15,0.09-0.21c0.8-1.84,1.61-3.69,2.41-5.54
	c0.07-0.16,0.15-0.21,0.34-0.21C37.84,74.16,38.97,74.16,40.11,74.16z"/>
<g>
	<path fill="#FFFFFF" d="M85.75,78.89c-1.55,0-2.71,0.99-3.16,2.57c-0.74-1.1-1.31-2.36-1.64-3.4h-1.62l0.02,4.17
		c0,0.84-0.68,1.5-1.53,1.5c-0.86,0.02-1.55-0.66-1.55-1.48l-0.04-4.17h-1.62l0.02,4.17c0.02,1.75,1.44,3.11,3.18,3.11
		c1.74-0.02,3.16-1.4,3.15-3.12v-0.72c0.32,0.63,0.74,1.29,1.19,1.88L81.16,88h1.65l0.72-3.35c0.65,0.38,1.38,0.63,2.23,0.63
		c1.8-0.02,3.25-1.45,3.24-3.25C89,80.29,87.53,78.87,85.75,78.89L85.75,78.89z M85.76,83.65c-0.65,0-1.29-0.26-1.83-0.7l0.16-0.63
		v-0.05c0.13-0.66,0.49-1.82,1.69-1.82c0.9,0,1.64,0.7,1.64,1.57C87.38,82.94,86.61,83.65,85.76,83.65L85.76,83.65z"/>
</g>
</svg>
