<?xml version="1.0" encoding="utf-8"?>
<!-- Generator: Adobe Illustrator 25.2.0, SVG Export Plug-In . SVG Version: 6.00 Build 0)  -->
<svg version="1.0" id="Layer_1" xmlns="http://www.w3.org/2000/svg" xmlns:xlink="http://www.w3.org/1999/xlink" x="0px" y="0px"
	 viewBox="0 0 240 64" enable-background="new 0 0 240 64" width="240" height="64" xml:space="preserve">
<path fill-rule="evenodd" clip-rule="evenodd" fill="#333333" d="M39.11,33.8c0-0.67-0.36-1.29-0.96-1.63l-15.87-8.92
	c-0.27-0.15-0.57-0.23-0.87-0.25c-0.03,0-0.14,0-0.16,0c-0.3,0.01-0.6,0.09-0.88,0.25L4.49,32.17c-0.59,0.33-0.96,0.95-0.96,1.63
	l0.03,24.01c0,0.33,0.18,0.64,0.48,0.81c0.29,0.17,0.66,0.17,0.95,0l9.43-5.27c0.6-0.35,0.96-0.96,0.96-1.62V40.5
	c0-0.67,0.36-1.29,0.96-1.62l4.02-2.26c0.3-0.17,0.63-0.25,0.96-0.25c0.33,0,0.66,0.08,0.95,0.25l4.02,2.26
	c0.59,0.33,0.96,0.95,0.96,1.62v11.22c0,0.67,0.37,1.28,0.96,1.62l9.43,5.27c0.3,0.17,0.67,0.17,0.96,0
	c0.29-0.16,0.48-0.47,0.48-0.81L39.11,33.8z"/>
<path fill-rule="evenodd" clip-rule="evenodd" fill="#333333" d="M123.87,0.79c-0.3-0.16-0.66-0.16-0.95,0.01
	c-0.29,0.17-0.47,0.48-0.47,0.81v23.78c0,0.23-0.13,0.45-0.33,0.57c-0.21,0.12-0.46,0.12-0.67,0l-3.98-2.24
	c-0.59-0.33-1.32-0.33-1.92,0l-15.88,8.94c-0.59,0.33-0.96,0.95-0.96,1.62v17.89c0,0.67,0.37,1.29,0.96,1.62l15.88,8.95
	c0.59,0.33,1.32,0.33,1.92,0l15.88-8.95c0.59-0.33,0.96-0.95,0.96-1.62V7.58c0-0.68-0.38-1.3-0.98-1.63L123.87,0.79z M122.4,46.3
	c0,0.17-0.09,0.32-0.24,0.4l-5.45,3.07c-0.15,0.08-0.33,0.08-0.48,0l-5.45-3.07c-0.15-0.08-0.24-0.24-0.24-0.4v-6.14
	c0-0.17,0.09-0.32,0.24-0.41l5.45-3.07c0.15-0.08,0.33-0.08,0.48,0l5.45,3.07c0.15,0.08,0.24,0.24,0.24,0.41V46.3z"/>
<path fill-rule="evenodd" clip-rule="evenodd" fill="#333333" d="M180.69,39.99c0.59-0.33,0.95-0.95,0.95-1.62v-4.34
	c0-0.67-0.36-1.28-0.95-1.62l-15.78-8.94c-0.59-0.34-1.33-0.34-1.92,0l-15.87,8.94c-0.59,0.33-0.96,0.95-0.96,1.62v17.89
	c0,0.67,0.37,1.29,0.97,1.63l15.78,8.77c0.58,0.32,1.29,0.33,1.88,0.01l9.54-5.18c0.3-0.16,0.49-0.47,0.49-0.81
	c0-0.34-0.18-0.65-0.48-0.82l-15.98-8.95c-0.3-0.17-0.48-0.48-0.48-0.81v-5.61c0-0.33,0.18-0.64,0.48-0.81l4.97-2.8
	c0.3-0.17,0.66-0.17,0.96,0l4.97,2.8c0.3,0.17,0.48,0.48,0.48,0.81v4.41c0,0.33,0.18,0.64,0.48,0.81c0.3,0.17,0.66,0.17,0.96,0
	L180.69,39.99z"/>
<path fill-rule="evenodd" clip-rule="evenodd" fill="#80BD01" d="M67.98,23.38c0.59-0.33,1.32-0.33,1.92,0l15.88,8.94
	c0.59,0.33,0.96,0.95,0.96,1.62v17.9c0,0.67-0.37,1.29-0.96,1.62L69.9,62.42c-0.59,0.33-1.32,0.33-1.92,0l-15.87-8.95
	c-0.59-0.33-0.96-0.95-0.96-1.62v-17.9c0-0.67,0.37-1.29,0.96-1.62L67.98,23.38z"/>
<path fill="#80BD01" d="M211.52,62.67c-0.55,0-1.09-0.14-1.57-0.41l-5-2.89c-0.75-0.41-0.38-0.55-0.14-0.64c1-0.34,1.2-0.41,2.26-1
	c0.11-0.06,0.26-0.04,0.37,0.03l3.84,2.23c0.14,0.08,0.34,0.08,0.46,0l14.97-8.43c0.14-0.08,0.23-0.23,0.23-0.4V34.3
	c0-0.17-0.09-0.32-0.23-0.4l-14.97-8.43c-0.14-0.08-0.32-0.08-0.46,0l-14.96,8.43c-0.15,0.08-0.24,0.24-0.24,0.4v16.86
	c0,0.16,0.09,0.31,0.24,0.39l4.1,2.31c2.23,1.09,3.59-0.19,3.59-1.48V35.74c0-0.24,0.19-0.42,0.44-0.42h1.9
	c0.24,0,0.43,0.19,0.43,0.42v16.65c0,2.9-1.62,4.56-4.43,4.56c-0.87,0-1.55,0-3.45-0.91l-3.93-2.21c-0.97-0.55-1.57-1.57-1.57-2.67
	V34.3c0-1.1,0.6-2.12,1.57-2.66l14.97-8.44c0.95-0.52,2.21-0.52,3.15,0l14.97,8.44c0.97,0.55,1.57,1.57,1.57,2.66v16.86
	c0,1.1-0.6,2.11-1.57,2.67l-14.97,8.44C212.61,62.53,212.07,62.67,211.52,62.67z"/>
<path fill="#80BD01" d="M216.14,51.05c-6.55,0-7.92-2.94-7.92-5.4c0-0.23,0.19-0.42,0.43-0.42h1.94c0.22,0,0.4,0.15,0.43,0.36
	c0.29,1.92,1.16,2.89,5.13,2.89c3.15,0,4.5-0.7,4.5-2.33c0-0.94-0.38-1.64-5.28-2.11c-4.1-0.4-6.63-1.28-6.63-4.48
	c0-2.95,2.55-4.71,6.82-4.71c4.8,0,7.17,1.62,7.47,5.11c0.01,0.12-0.03,0.24-0.11,0.33c-0.08,0.08-0.2,0.13-0.32,0.13h-1.94
	c-0.2,0-0.38-0.14-0.42-0.33c-0.47-2.02-1.6-2.67-4.68-2.67c-3.44,0-3.84,1.17-3.84,2.05c0,1.06,0.47,1.37,5.12,1.97
	c4.6,0.59,6.79,1.43,6.79,4.59C223.61,49.23,220.89,51.05,216.14,51.05z"/>
<path fill-rule="evenodd" clip-rule="evenodd" fill="#80BD01" d="M163.71,39.16c0.11-0.06,0.25-0.06,0.37,0l3.05,1.72
	c0.11,0.06,0.18,0.18,0.18,0.31v3.43c0,0.13-0.07,0.25-0.18,0.31l-3.05,1.72c-0.11,0.06-0.25,0.06-0.37,0l-3.04-1.72
	c-0.11-0.06-0.18-0.18-0.18-0.31v-3.43c0-0.13,0.07-0.25,0.18-0.31L163.71,39.16z"/>
<g>
	<path fill="#80BD01" d="M240,27.76c0,1.55-1.3,2.82-2.89,2.82c-1.57,0-2.89-1.25-2.89-2.82c0-1.59,1.34-2.82,2.89-2.82
		C238.67,24.94,240,26.16,240,27.76z M234.69,27.75c0,1.31,1.08,2.37,2.41,2.37c1.34,0,2.43-1.08,2.43-2.37
		c0-1.31-1.1-2.35-2.43-2.35C235.79,25.4,234.69,26.42,234.69,27.75z M236.03,26.18h1.12c0.38,0,1.13,0,1.13,0.83
		c0,0.58-0.38,0.7-0.61,0.77c0.44,0.03,0.47,0.31,0.53,0.72c0.03,0.25,0.08,0.69,0.17,0.83h-0.69c-0.02-0.15-0.12-0.95-0.12-1
		c-0.04-0.18-0.11-0.27-0.34-0.27h-0.56v1.27h-0.63V26.18z M236.64,27.56h0.5c0.41,0,0.49-0.28,0.49-0.45
		c0-0.43-0.31-0.43-0.47-0.43h-0.52V27.56z"/>
</g>
</svg>
